<?xml version="1.0" encoding="UTF-8" standalone="no"?>
<!-- Generator: Adobe Illustrator 17.0.0, SVG Export Plug-In . SVG Version: 6.00 Build 0)  -->

<svg
   version="1.1"
   id="Layer_1"
   x="0px"
   y="0px"
   width="120"
   height="120"
   viewBox="42 -104 120 120"
   enable-background="new 42 -104 216 198.667"
   xml:space="preserve"
   sodipodi:docname="logo-cultiva-ico.svg"
   inkscape:version="1.4.3 (0d15f75, 2025-12-25)"
   xmlns:inkscape="http://www.inkscape.org/namespaces/inkscape"
   xmlns:sodipodi="http://sodipodi.sourceforge.net/DTD/sodipodi-0.dtd"
   xmlns="http://www.w3.org/2000/svg"
   xmlns:svg="http://www.w3.org/2000/svg"><defs
   id="defs13" /><sodipodi:namedview
   id="namedview13"
   pagecolor="#ffffff"
   bordercolor="#000000"
   borderopacity="0.25"
   inkscape:showpageshadow="2"
   inkscape:pageopacity="0.0"
   inkscape:pagecheckerboard="0"
   inkscape:deskcolor="#d1d1d1"
   inkscape:zoom="6.1157613"
   inkscape:cx="102.27672"
   inkscape:cy="41.123253"
   inkscape:window-width="3440"
   inkscape:window-height="1417"
   inkscape:window-x="-8"
   inkscape:window-y="-8"
   inkscape:window-maximized="1"
   inkscape:current-layer="Layer_1"
   showgrid="true"><inkscape:grid
     id="grid13"
     units="px"
     originx="-5.6774387"
     originy="-5.8750453"
     spacingx="1"
     spacingy="0.99999996"
     empcolor="#0099e5"
     empopacity="0.30196078"
     color="#0099e5"
     opacity="0.14901961"
     empspacing="5"
     enabled="true"
     visible="true" /></sodipodi:namedview>



<path
   fill="#FFFFFF"
   d="m 86.649827,15.130291 c -2.399,-0.517 -4.578,-2.003 -5.893,-4.28 l -36.789,-63.717 c -2.472,-4.28 -0.989,-9.802 3.288,-12.274 l 40.134,-23.172 -0.158,22.244 -17.029,9.833 c -2.487,1.434 -3.346,4.642 -1.912,7.129 l 2.247,3.89 25.865997,-14.935 0.055,19.035 -17.664997,10.198 8.085,14.006 z"
   id="path2"
   style="fill:#6f7071;fill-opacity:1" />

<path
   fill="#FFFFFF"
   d="m 156.74382,-22.650709 -61.092996,35.272 0.161,-22.371 c 0.335,-0.11 0.661,-0.256 0.977,-0.438 l 37.010996,-21.37 c 2.487,-1.434 3.346,-4.642 1.912,-7.129 l -21.37,-37.011 c -1.437,-2.487 -4.642,-3.346 -7.129,-1.912 l -10.961996,6.329 0.158,-22.244 14.562996,-8.408001 c 4.28,-2.472 9.802,-0.992 12.274,3.288001 l 36.785,63.717 c 2.473,4.283 0.993,9.805 -3.287,12.277"
   id="path3"
   style="fill:#7a191e;fill-opacity:1" />





















</svg>
